<svg xmlns="http://www.w3.org/2000/svg" fill="none" class="logo" viewBox="0 0 129 56"><g fill="#fff" clip-path="url(#a)"><path d="M11.904 4.299a10.172 10.172 0 0 0-2.609-.331c-.906 0-1.64.233-2.204.698-.539.441-.808 1.078-.808 1.91 0 .809.208 1.446.624 1.911.417.466 1.237.87 2.462 1.213l3.27.955c1.764.514 3.16 1.323 4.188 2.425 1.054 1.078 1.58 2.67 1.58 4.776 0 2.498-.906 4.47-2.719 5.915-1.788 1.446-4.017 2.168-6.686 2.168-1.47 0-2.989-.183-4.556-.55-1.543-.393-2.83-.932-3.858-1.618v-.845c0-.416.086-1.126.257-2.13.171-1.005.416-1.825.735-2.462h3.49c.392.76.625 1.776.698 3.05.858.367 1.85.55 2.976.55 1.152 0 2.095-.269 2.83-.808.734-.539 1.102-1.31 1.102-2.315 0-.465-.037-.845-.11-1.139-.074-.318-.307-.649-.699-.992-.367-.367-.906-.66-1.616-.881l-3.785-1.103C2.621 13.594.698 11.145.698 7.348c0-2.229.808-4.005 2.425-5.327C4.74.674 6.846 0 9.443 0c2.62 0 5.18.588 7.678 1.764v.845c0 .416-.085 1.126-.257 2.13-.171 1.005-.416 1.825-.735 2.462h-3.49c-.416-.588-.661-1.555-.735-2.902zM38.508 25.645H21.46l-.367-3.05c.318-.416.991-.82 2.02-1.212V4.593c-1.004-.368-1.678-.784-2.02-1.25l.367-3.05h16.754v6.394l-2.719.33c-.563-.49-1.017-1.396-1.36-2.718h-5.731v6.32h5.107c.294-.736.6-1.25.918-1.544l2.315.257v6.54l-2.315.294c-.318-.245-.624-.76-.918-1.543h-5.107v7.018h6.025c.319-1.274.772-2.18 1.36-2.72l2.719.331v6.393zM55.3 4.63c-.734-.319-1.836-.478-3.306-.478s-2.658.637-3.564 1.91c-.906 1.274-1.36 3.503-1.36 6.687s.43 5.45 1.287 6.797c.881 1.323 2.18 1.984 3.894 1.984 2.621 0 4.973-.392 7.055-1.175l1.322 3.27c-2.596 1.543-5.646 2.314-9.148 2.314-3.503 0-6.038-.992-7.606-2.976-1.543-1.984-2.315-5.23-2.315-9.736 0-4.507.956-7.838 2.866-9.994C46.36 1.078 49.067 0 52.545 0c2.792 0 5.45.772 7.973 2.315v.845c0 .416-.086 1.126-.257 2.13-.172 1.005-.417 1.826-.735 2.462h-3.49c-.343-.661-.588-1.702-.735-3.123zM82.831 16.46c0 3.209-.735 5.597-2.204 7.165-1.445 1.543-3.797 2.314-7.054 2.314-3.258 0-5.548-.76-6.871-2.278-1.298-1.543-1.947-3.943-1.947-7.201V4.593c-.931-.343-1.605-.76-2.021-1.25L63.1.293h8.6l.367 3.05c-.392.466-1.065.882-2.02 1.25v12.014c0 1.764.281 3.074.844 3.931.588.833 1.63 1.25 3.123 1.25 1.494 0 2.548-.43 3.16-1.287.612-.881.919-2.18.919-3.894V4.593c-1.005-.368-1.678-.784-2.021-1.25l.367-3.05h8.046l.368 3.05c-.392.466-1.066.882-2.02 1.25V16.46zM107.219 7.716c0 1.665-.526 3.061-1.579 4.188-1.029 1.127-2.327 1.984-3.895 2.572 1.225.514 2.033 1.139 2.425 1.874l2.682 5.107c1.151.392 1.935.845 2.352 1.36l-.368 2.828h-6.209l-4.225-9.001c-.392-.907-.845-1.36-1.36-1.36h-2.388v5.879c1.788.392 2.903.87 3.344 1.433l-.368 3.05h-9.92l-.367-3.05c.318-.417.992-.82 2.02-1.213V4.593c-1.004-.368-1.677-.784-2.02-1.25l.367-3.05h9.369c3.429.05 5.977.601 7.642 1.654 1.666 1.054 2.498 2.976 2.498 5.769zM96.822 4.299h-2.168v6.98h2.094c1.666 0 2.903-.244 3.711-.734.833-.515 1.249-1.421 1.249-2.72 0-1.297-.416-2.204-1.249-2.718-.833-.539-2.045-.808-3.637-.808zM128.563 25.645h-17.047l-.368-3.05c.319-.416.992-.82 2.021-1.212V4.593c-1.004-.368-1.678-.784-2.021-1.25l.368-3.05h16.754v6.394l-2.719.33c-.564-.49-1.017-1.396-1.36-2.718h-5.731v6.32h5.107c.294-.736.6-1.25.918-1.544l2.315.257v6.54l-2.315.294c-.318-.245-.624-.76-.918-1.543h-5.107v7.018h6.025c.319-1.274.772-2.18 1.36-2.72l2.718.331v6.393zM20.097 46.52c0 3.21-.735 5.598-2.204 7.165C16.448 55.228 14.096 56 10.839 56c-3.258 0-5.548-.76-6.871-2.278-1.298-1.543-1.947-3.944-1.947-7.201V34.654C1.09 34.31.416 33.894 0 33.404l.367-3.05h8.598l.367 3.05c-.392.466-1.065.882-2.02 1.25v12.014c0 1.763.281 3.074.845 3.931.587.833 1.628 1.25 3.123 1.25 1.494 0 2.547-.43 3.16-1.287.612-.881.918-2.18.918-3.894V34.654c-1.005-.368-1.678-.784-2.021-1.25l.367-3.05h8.047l.367 3.05c-.392.466-1.065.882-2.02 1.25V46.52zM32.104 46.888H30.45v4.336c1.788.392 2.902.87 3.343 1.433l-.367 3.05h-9.92l-.368-3.05c.319-.417.992-.821 2.02-1.213v-16.79c-1.003-.368-1.677-.784-2.02-1.25l.367-3.05h9.737c3.404.05 5.94.674 7.605 1.875 1.69 1.175 2.535 3.282 2.535 6.319 0 5.56-3.76 8.34-11.28 8.34zm.551-12.529h-2.204v8.524h2.461c1.666 0 2.903-.33 3.711-.992.833-.66 1.25-1.8 1.25-3.416 0-1.642-.454-2.732-1.36-3.27-.882-.564-2.168-.846-3.858-.846zM61.88 55.706H45.053l-.367-3.05c.318-.416.992-.82 2.02-1.212v-16.79c-1.004-.368-1.677-.784-2.02-1.25l.367-3.05h8.598l.367 3.05c-.392.466-1.066.882-2.02 1.25V51.7h5.804c.319-1.273.772-2.18 1.36-2.718l2.718.33v6.393zM72.717 56c-3.478 0-6.086-1.004-7.826-3.013-1.714-2.008-2.571-5.254-2.571-9.736 0-4.507.943-7.826 2.829-9.957 1.91-2.155 4.617-3.233 8.12-3.233 3.527 0 6.147.955 7.862 2.866 1.74 1.91 2.609 5.107 2.609 9.589 0 4.483-.968 7.85-2.903 10.104-1.935 2.253-4.642 3.38-8.12 3.38zm-3.564-19.877c-.881 1.274-1.322 3.49-1.322 6.65s.465 5.462 1.396 6.908c.93 1.445 2.204 2.167 3.821 2.167 1.641 0 2.915-.673 3.821-2.02.906-1.372 1.36-3.638 1.36-6.798 0-5.878-1.764-8.817-5.291-8.817-1.641 0-2.903.636-3.785 1.91zM97.56 30.171l7.311 21.2c1.029.367 1.751.796 2.168 1.286l-.368 3.05h-8.597l-.368-3.05c.294-.392.882-.76 1.764-1.103l-.992-3.086H91.13l-.919 2.976c.858.343 1.494.747 1.91 1.213l-.367 3.05h-8.377l-.367-3.05c.44-.564 1.261-1.03 2.462-1.397l7.054-21.089h5.034zm-3.05 5.144c0 1.494-.306 3.233-.919 5.217l-1.432 4.556h5.253l-1.396-4.483c-.563-1.714-.881-3.27-.955-4.666l-.037-.624h-.514zM117.088 55.706h-9.368l-.368-3.05c.319-.416.992-.82 2.021-1.212v-16.79c-1.004-.368-1.678-.784-2.021-1.25l.368-3.05h8.193c3.943 0 7.066 1.103 9.369 3.307 2.327 2.205 3.49 5.45 3.49 9.737 0 4.262-1.053 7.385-3.16 9.369-2.082 1.96-4.923 2.94-8.524 2.94zm-2.424-4.005h2.645c1.837 0 3.282-.55 4.335-1.653 1.078-1.127 1.617-3.294 1.617-6.503 0-6.124-2.315-9.186-6.944-9.186h-1.653v17.342z"/></g><defs><clipPath id="a"><path fill="#fff" d="M0 0h128.765v56H0z"/></clipPath></defs></svg>