<svg width="16" height="16" viewBox="0 0 16 16" fill="none" xmlns="http://www.w3.org/2000/svg">
<path d="M13 2.5H3C2.72386 2.5 2.5 2.72386 2.5 3V13C2.5 13.2761 2.72386 13.5 3 13.5H13C13.2761 13.5 13.5 13.2761 13.5 13V3C13.5 2.72386 13.2761 2.5 13 2.5Z" stroke="#FF00FF" stroke-width="1.5" stroke-linecap="round" stroke-linejoin="round"/>
<path d="M2.49963 10H4.79253C4.85819 10 4.92321 10.0129 4.98387 10.0381C5.04453 10.0632 5.09965 10.1 5.14608 10.1464L6.35319 11.3536C6.39962 11.4 6.45474 11.4368 6.5154 11.4619C6.57606 11.4871 6.64108 11.5 6.70674 11.5H9.29253C9.35819 11.5 9.42321 11.4871 9.48387 11.4619C9.54453 11.4368 9.59965 11.4 9.64608 11.3536L10.8532 10.1464C10.8996 10.1 10.9547 10.0632 11.0154 10.0381C11.0761 10.0129 11.1411 10 11.2067 10H13.4996" stroke="#FF00FF" stroke-width="1.5" stroke-linecap="round" stroke-linejoin="round"/>
</svg>
