<svg width="16" height="16" viewBox="0 0 16 16" fill="none" xmlns="http://www.w3.org/2000/svg">
<path d="M5.50005 10C7.29497 10 8.75005 8.54493 8.75005 6.75C8.75005 4.95507 7.29497 3.5 5.50005 3.5C3.70512 3.5 2.25005 4.95507 2.25005 6.75C2.25005 8.54493 3.70512 10 5.50005 10Z" stroke="#FF00FF" stroke-width="1.5" stroke-miterlimit="10"/>
<path d="M9.7133 3.62104C10.1603 3.4951 10.6291 3.46641 11.0882 3.5369C11.5472 3.6074 11.9858 3.77544 12.3744 4.02972C12.763 4.284 13.0927 4.6186 13.3411 5.01099C13.5895 5.40339 13.7509 5.84446 13.8145 6.3045C13.8781 6.76454 13.8424 7.23287 13.7098 7.67794C13.5771 8.12301 13.3506 8.53449 13.0456 8.88467C12.7405 9.23484 12.364 9.51558 11.9413 9.70796C11.5186 9.90035 11.0596 9.99993 10.5952 9.99998" stroke="#FF00FF" stroke-width="1.5" stroke-linejoin="round"/>
<path d="M0.999756 12.3373C1.50734 11.6153 2.18119 11.026 2.96441 10.6192C3.74764 10.2124 4.61724 10 5.49981 10C6.38238 9.99997 7.252 10.2123 8.03525 10.619C8.81851 11.0258 9.4924 11.615 10 12.337" stroke="#FF00FF" stroke-width="1.5" stroke-linejoin="round"/>
<path d="M10.5952 10C11.4778 9.99936 12.3476 10.2114 13.1309 10.6182C13.9143 11.025 14.588 11.6146 15.0952 12.337" stroke="#FF00FF" stroke-width="1.5" stroke-linejoin="round"/>
</svg>
