<svg width="16" height="16" viewBox="0 0 16 16" fill="none" xmlns="http://www.w3.org/2000/svg">
<path fill-rule="evenodd" clip-rule="evenodd" d="M4.75 6C4.75 4.20507 6.20508 2.75 8 2.75C9.79493 2.75 11.25 4.20507 11.25 6C11.25 7.79492 9.79493 9.24999 8.00002 9.25C8.00001 9.25 8.00001 9.25 8 9.25C6.20508 9.25 4.75 7.79493 4.75 6ZM10.8565 9.79547C12.0065 8.92858 12.75 7.55111 12.75 6C12.75 3.37665 10.6234 1.25 8 1.25C5.37665 1.25 3.25 3.37665 3.25 6C3.25 7.5511 3.99347 8.92855 5.14349 9.79545C4.79358 9.93413 4.45305 10.0986 4.12479 10.288C2.9465 10.9681 1.96792 11.9462 1.28736 13.1242L0.91217 13.7736L2.21099 14.524L2.58618 13.8746C3.13506 12.9245 3.9243 12.1357 4.8746 11.5872C5.82489 11.0387 6.90279 10.75 8 10.75C8.00001 10.75 8.00001 10.75 8.00002 10.75C9.09724 10.75 10.1751 11.0388 11.1254 11.5873C12.0757 12.1357 12.8649 12.9246 13.4138 13.8747L13.789 14.5241L15.0878 13.7738L14.7126 13.1244C14.0321 11.9464 13.0535 10.9682 11.8753 10.2881C11.547 10.0986 11.2064 9.93417 10.8565 9.79547Z" fill="#FF00FF"/>
</svg>
